<svg width="281" height="316" viewBox="0 0 281 316" fill="none" xmlns="http://www.w3.org/2000/svg">
<path fill-rule="evenodd" clip-rule="evenodd" d="M166 139.527C166 101.034 134.66 69.83 96 69.83C57.34 69.83 26 101.034 26 139.527V276.83H166V139.527Z" fill="#F6DDD9"/>
<path d="M160.631 10.3689L171.009 109.73L199.482 13.9719L171.046 109.742L233.997 32.1686L171.077 109.766L258.922 62.1881L171.096 109.8L270.461 99.4611L171.1 109.839L266.858 138.313L171.088 109.877L248.661 172.827L171.064 109.907L218.642 197.752L171.029 109.926L181.369 209.291L170.991 109.93L142.517 205.688L170.953 109.918L108.002 187.491L170.923 109.894L127 133.683L83.0778 157.472L170.904 109.859L71.5388 120.199L170.9 109.821L75.1417 81.3472L170.911 109.783L93.3384 46.8323L170.936 109.753L123.358 21.9079L170.97 109.734L160.631 10.3689Z" fill="#1E292B" stroke="#FFC53D" stroke-width="4"/>
<path fill-rule="evenodd" clip-rule="evenodd" d="M48 315.83C47.904 289.353 26.4506 267.919 0 267.919C26.5097 267.919 48 246.388 48 219.83C48.0956 246.307 69.5494 267.741 96 267.741C69.4899 267.741 48 289.271 48 315.83Z" fill="#4F6C6A"/>
</svg>
