<svg width="20" height="20" viewBox="0 0 20 20" fill="none" xmlns="http://www.w3.org/2000/svg">
<path id="Vector" d="M19 0.25C19.5523 0.25 20 0.69772 20 1.25V15.25C20 15.8023 19.5523 16.25 19 16.25H4.455L0 19.75V1.25C0 0.69772 0.44772 0.25 1 0.25H19ZM18 2.25H2V15.635L3.76333 14.25H18V2.25ZM8.5153 4.6616L8.9616 5.3504C7.29402 6.2527 7.32317 7.7019 7.32317 8.0145C7.47827 7.9931 7.64107 7.9903 7.80236 8.0053C8.7045 8.0889 9.4156 8.8295 9.4156 9.75C9.4156 10.7165 8.6321 11.5 7.66558 11.5C7.12905 11.5 6.61598 11.2548 6.29171 10.9105C5.77658 10.3637 5.5 9.75 5.5 8.7552C5.5 7.00543 6.72825 5.43684 8.5153 4.6616ZM13.5153 4.6616L13.9616 5.3504C12.294 6.2527 12.3232 7.7019 12.3232 8.0145C12.4783 7.9931 12.6411 7.9903 12.8024 8.0053C13.7045 8.0889 14.4156 8.8295 14.4156 9.75C14.4156 10.7165 13.6321 11.5 12.6656 11.5C12.1291 11.5 11.616 11.2548 11.2917 10.9105C10.7766 10.3637 10.5 9.75 10.5 8.7552C10.5 7.00543 11.7283 5.43684 13.5153 4.6616Z" fill="#4F6C6A"/>
</svg>
